# xmcd
#
# Track frame offsets:
#	150
#	10467
#	23455
#	35777
#	47025
#	58415
#	70877
#	80810
#	94145
#	107362
#	122575
#	136440
#	148850
#	162135
#	175345
#	192517
#
# Disc length: 2721 seconds
#
# Revision: 0
# Processed by: cddbd v1.5.2PL0 Copyright (c) Steve Scherf et al.
# Submitted via: EasyCDDAExtractor 8.1.4.1
#
DISCID=e60a9f10
DTITLE=Various Artist - Country Number Ones vol.3
DYEAR=1900
DGENRE=Country
TTITLE0=Eddie Arnold - Then you can tell me goodbye
TTITLE1=Jim Reeves - Distant drums
TTITLE2=Johnny Cash - Folsom prison blues
TTITLE3=Conway Twitty - Hello Darlin'
TTITLE4=Donna Fargo - The happiest girl in the whole U.S.A
TTITLE5=Jerry Lee Lewis - Chantilly lace
TTITLE6=Charlie Pride - Is anybody goin' to San Antone?
TTITLE7=Waylon and Willie - Good hearted woman
TTITLE8=Charlie Rich - Behind closed doors
TTITLE9=Jeannie Pruett - Satin sheets
TTITLE10=Barbara Fairchild - The teddy bear song
TTITLE11=Hank Williams jr. - Eleven roses
TTITLE12=Lynn Anderson - Keep me in mind
TTITLE13=Dolly Parton - I will always love you
TTITLE14=C.W.McCall - Convoy
TTITLE15=Various Artist - Before the next teardrop falls
EXTD=
EXTT0=
EXTT1=
EXTT2=
EXTT3=
EXTT4=
EXTT5=
EXTT6=
EXTT7=
EXTT8=
EXTT9=
EXTT10=
EXTT11=
EXTT12=
EXTT13=
EXTT14=
EXTT15=
PLAYORDER=
